<?xml version="1.0" standalone="no"?><!DOCTYPE svg PUBLIC "-//W3C//DTD SVG 1.1//EN" "http://www.w3.org/Graphics/SVG/1.1/DTD/svg11.dtd"><svg t="1567660221285" class="icon" viewBox="0 0 1024 1024" version="1.1" xmlns="http://www.w3.org/2000/svg" p-id="5156" xmlns:xlink="http://www.w3.org/1999/xlink" width="200" height="200"><defs><style type="text/css"></style></defs><path d="M888.285039 744.388744c4.790096-26.179242 7.18361-54.742788 2.39249-78.54489H888.285039c-98.16781-4.757351-19.153222-59.501162-19.153222-59.501162-16.763802-28.562523-40.708144-52.363601-67.043953-64.26363-62.253856 69.022003-64.647369-26.183336-64.647369-26.183335-26.336832-4.758374-55.070246-4.758374-81.407078 0-9.580193 90.446965-71.829955 28.562523-71.829955 28.562522-23.943318 16.660448-45.493124 38.083363-59.860343 64.26363 69.436442 69.025073-19.153222 59.505255-19.153222 59.505255h-2.396583c-2.393513 11.899004-2.393513 23.802102-2.393513 35.700083 0 16.660448 2.393513 30.94171 4.789073 45.225018 83.800591 0 31.126928 45.222971 21.546735 52.363601 16.759709 26.180266 38.309514 49.981345 67.042929 66.641793l2.393513-2.379187c57.464783-54.741765 59.860343 23.802102 59.860343 23.802102 26.337855 4.758374 50.28015 4.758374 76.618005 0 7.182586-78.543867 47.88766-28.562523 55.070246-19.043728 31.126928-16.660448 59.860343-42.840714 79.013565-73.782423-71.829955-40.463574 16.760732-52.365648 21.550829-52.365649z m-193.941084 33.32499c-45.494147 0-81.411171-35.704177-81.411171-78.54489 0-42.843784 35.917024-78.544891 81.411171-78.544891 45.490054 0 81.407078 35.701107 81.407078 78.544891 0 42.840714-35.918048 78.544891-81.407078 78.54489zM445.327508 470.675826c-95.774297 0-174.787862-76.165704-174.787862-171.371043s79.013565-171.371042 174.787862-171.371042 174.787862 76.165704 174.787862 171.371042-79.013565 171.371042-174.787862 171.371043M507.582387 556.357254c-81.407078 83.306334-45.494147 207.075219-45.494147 207.075219 11.973706 28.559453-9.576099 35.700083-9.576099 35.700083-43.097564 9.519818-225.069035-9.520841-227.465619-9.520841-114.926496-11.899004-95.774297-49.981345-95.774297-49.981344l35.917025-104.72925c19.153222-90.442872 100.561323-109.4866 100.561323-109.4866h244.225327c9.576099 14.282285-2.393513 30.942733-2.393513 30.942733" p-id="5157"></path></svg>