<?xml version="1.0" standalone="no"?><!DOCTYPE svg PUBLIC "-//W3C//DTD SVG 1.1//EN" "http://www.w3.org/Graphics/SVG/1.1/DTD/svg11.dtd"><svg t="1567660071137" class="icon" viewBox="0 0 1024 1024" version="1.1" xmlns="http://www.w3.org/2000/svg" p-id="4698" xmlns:xlink="http://www.w3.org/1999/xlink" width="200" height="200"><defs><style type="text/css"></style></defs><path d="M631.488 0H406.976c-27.536 0-49.552 24.512-49.552 54.784 0 30.352 22.048 54.928 49.552 54.928h225.896c26.16 0 48.216-24.576 48.216-54.928-0.024-30.272-22.056-54.784-49.6-54.784z m243.776 36.576H763.456c1.144 6 1.816 12.064 1.816 18.2 0.016 46.12-33.456 91.496-73.216 91.496H348.576c-41.888 0-75.392-45.376-75.392-91.496 0.048-6.144 0.704-12.216 1.832-18.2h-113.152c-90.976 0-113.296 51.544-113.296 125.952V899.36c0 79.92 32 124.64 120.168 124.64h699.656c88.168 0 131.016-35.064 131.016-124.608v-736.856c0.016-74.408-40.112-125.96-124.144-125.96z m-114.888 727.52H274.224c-17.92 0-35.816-21.968-35.816-39.952 0-17.888 15.144-33.2 33.056-33.2h484.816c17.904 0 33.032 13.936 34.408 33.2 0 17.984-12.344 39.952-30.312 39.952z m1.968-195.096H276.192c-17.92 0-29.328-19.28-29.328-37.248 0-17.944 15.136-35.888 33.04-35.888H764.72c17.904 0 33.032 16.616 34.408 35.888 0 17.936-18.88 37.248-36.784 37.248z m0-200.392H276.192c-17.92 0-29.328-19.28-29.328-37.216 0-17.968 15.136-35.92 33.04-35.92H764.72c17.904 0 33.032 16.64 34.408 35.92 0 17.936-18.88 37.216-36.784 37.216z" p-id="4699"></path></svg>