<?xml version="1.0" standalone="no"?><!DOCTYPE svg PUBLIC "-//W3C//DTD SVG 1.1//EN" "http://www.w3.org/Graphics/SVG/1.1/DTD/svg11.dtd"><svg t="1567659822577" class="icon" viewBox="0 0 1024 1024" version="1.1" xmlns="http://www.w3.org/2000/svg" p-id="3897" xmlns:xlink="http://www.w3.org/1999/xlink" width="200" height="200"><defs><style type="text/css"></style></defs><path d="M512.2 490c117.5-0.3 212.5-95.4 212.8-212.8-0.3-117.5-95.4-212.5-212.8-212.8-117.5 0.3-212.5 95.4-212.8 212.8 0.4 117.5 95.5 212.5 212.8 212.8zM513.4 888.1V692.7c0-58 47.1-105.1 105.1-105.1l149.1-0.5c-47.8-27.9-101.8-44.9-158.8-46.5 0 0-98.6 0.1-98.6 0.2h-94.6C232.8 545.7 80.3 711.1 65.4 879.3c-2 25.4 2.2 36 2.2 36 8.6 25.5 32 42.6 59.5 42.6l387.1-0.2h19.6c-12.8-21.4-20.4-46.3-20.4-69.6z" p-id="3898"></path><path d="M899.8 685.9l-198.9 0.7c-37 0-67.1 30-67.1 67.1v124.8c0 37 30 80.5 67.1 80.5h192.2c37 0 67.1-25.8 67.1-71V747.4c0-31.9-22.9-61.5-60.4-61.5z m-184.2 55.4h100.7c14.8 0 26.8 12 26.8 26.8s-12 26.8-26.8 26.8H715.6c-14.8 0-26.8-12-26.8-26.8s12-26.8 26.8-26.8z m162.9 160H715.6c-14.8 0-26.8-12-26.8-26.8s12-26.8 26.8-26.8h162.9c14.8 0 26.8 12 26.8 26.8s-12 26.8-26.8 26.8z" p-id="3899"></path></svg>