<?xml version="1.0" standalone="no"?><!DOCTYPE svg PUBLIC "-//W3C//DTD SVG 1.1//EN" "http://www.w3.org/Graphics/SVG/1.1/DTD/svg11.dtd"><svg t="1567660105221" class="icon" viewBox="0 0 1024 1024" version="1.1" xmlns="http://www.w3.org/2000/svg" p-id="4812" xmlns:xlink="http://www.w3.org/1999/xlink" width="200" height="200"><defs><style type="text/css"></style></defs><path d="M883.4048 947.9168l-88.576 67.7888c-15.2576 10.8544-35.6352 11.0592-51.0976 0.4096l-102.0928-76.8c-0.8192-0.6144-1.8432-0.8192-2.8672 0l-98.2016 76.3904c-15.2576 10.8544-35.6352 11.0592-51.0976 0.4096l-103.1168-76.8c-0.8192-0.6144-1.8432-0.8192-2.8672 0l-99.2256 76.3904c-15.36 10.8544-35.84 11.0592-51.4048 0.4096l-91.7504-68.1984c-7.168-5.3248-13.0048-16.6912-13.0048-25.9072v-792.576c0-34.304 13.4144-67.1744 37.2736-91.4432 23.8592-24.2688 56.32-37.888 90.3168-37.9904H896l0.1024 921.9072c-0.6144 10.0352-5.2224 19.456-12.6976 26.0096zM462.2336 417.1776c6.7584 0 13.2096-2.6624 18.0224-7.4752 4.8128-4.8128 7.4752-11.3664 7.4752-18.1248 0-13.7216-11.3664-25.6-25.3952-25.6h-33.8944L461.824 325.632c9.0112-10.8544 7.68-27.0336-2.9696-36.352-10.8544-8.9088-26.7264-7.3728-35.84 3.3792l-48.4352 58.368c-0.9216 1.1264-1.7408 2.2528-2.4576 3.4816-0.7168-1.2288-1.536-2.3552-2.3552-3.4816l-48.4352-58.368c-9.0112-10.8544-24.9856-12.288-35.9424-3.3792-10.6496 9.216-11.9808 25.3952-2.8672 36.2496l33.4848 40.3456h-24.576c-6.7584 0-13.2096 2.6624-17.92 7.4752-4.8128 4.8128-7.4752 11.3664-7.4752 18.1248 0.2048 14.1312 11.4688 25.4976 25.3952 25.6H348.16v41.8816h-56.7296c-6.7584 0-13.2096 2.6624-17.92 7.4752-4.8128 4.8128-7.4752 11.3664-7.4752 18.1248 0.2048 14.1312 11.4688 25.4976 25.3952 25.6H348.16v33.6896c0 14.1312 11.3664 25.6 25.2928 25.6s25.2928-11.4688 25.2928-25.6v-33.6896h63.2832c6.7584 0 13.2096-2.6624 18.0224-7.4752 4.8128-4.8128 7.4752-11.3664 7.4752-18.1248 0-13.7216-11.3664-25.6-25.3952-25.6h-63.2832v-41.8816h63.3856zM735.232 292.9664H596.5824c-6.7584-0.1024-13.312 2.56-18.1248 7.3728-4.8128 4.8128-7.4752 11.3664-7.4752 18.2272 0.2048 14.1312 11.6736 25.4976 25.6 25.6H735.232c6.7584 0.1024 13.312-2.56 18.0224-7.3728 4.8128-4.8128 7.4752-11.3664 7.4752-18.2272 0.1024-13.7216-11.3664-25.6-25.4976-25.6z m0 168.8576H596.5824c-6.7584-0.1024-13.312 2.56-18.1248 7.3728-4.8128 4.8128-7.4752 11.3664-7.4752 18.2272 0.2048 14.1312 11.6736 25.4976 25.6 25.6H735.232c6.7584 0.1024 13.312-2.56 18.0224-7.3728 4.8128-4.8128 7.4752-11.3664 7.4752-18.2272 0.1024-13.824-11.3664-25.6-25.4976-25.6z m4.3008 168.7552H283.3408c-13.9264 0.1024-25.088 11.5712-25.088 25.6h0.1024c0.1024 14.0288 11.264 25.3952 25.088 25.6h456.0896c13.6192 0 25.088-11.4688 25.088-25.6 0.1024-13.7216-11.264-25.6-25.088-25.6z" p-id="4813"></path></svg>
