<?xml version="1.0" standalone="no"?><!DOCTYPE svg PUBLIC "-//W3C//DTD SVG 1.1//EN" "http://www.w3.org/Graphics/SVG/1.1/DTD/svg11.dtd"><svg t="1567659747116" class="icon" viewBox="0 0 1024 1024" version="1.1" xmlns="http://www.w3.org/2000/svg" p-id="3668" xmlns:xlink="http://www.w3.org/1999/xlink" width="200" height="200"><defs><style type="text/css"></style></defs><path d="M892.342857 0H131.657143C80.457143 0 36.571429 51.2 36.571429 109.714286v811.885714c0 51.2 43.885714 102.4 95.085714 102.4h753.371428c51.2 0 95.085714-51.2 95.085715-109.714286v-804.571428C987.428571 51.2 943.542857 0 892.342857 0zM212.114286 321.828571c-29.257143-14.628571-43.885714-43.885714-43.885715-73.142857 0-43.885714 29.257143-73.142857 65.828572-73.142857s73.142857 36.571429 73.142857 73.142857c0 7.314286 0 21.942857-7.314286 29.257143 0 7.314286-7.314286 21.942857-14.628571 29.257143 21.942857 124.342857 117.028571 212.114286 226.742857 212.114286s204.8-87.771429 226.742857-212.114286c-7.314286-7.314286-7.314286-14.628571-14.628571-21.942857 0-14.628571-7.314286-21.942857-7.314286-36.571429 0-43.885714 29.257143-73.142857 73.142857-73.142857 36.571429 0 73.142857 36.571429 73.142857 73.142857 0 29.257143-14.628571 58.514286-43.885714 73.142857-21.942857 160.914286-153.6 277.942857-299.885714 277.942858-153.6 0-285.257143-117.028571-307.2-277.942858z m687.542857 512c14.628571 7.314286 14.628571 14.628571 14.628571 21.942858 0 7.314286-7.314286 14.628571-7.314285 21.942857-7.314286 7.314286-14.628571 7.314286-21.942858 7.314285h-7.314285c-14.628571 0-21.942857 0-36.571429 7.314286-7.314286 7.314286-14.628571 21.942857-7.314286 36.571429v7.314285c0 7.314286 0 14.628571-7.314285 21.942858-7.314286 0-14.628571 7.314286-21.942857 7.314285-7.314286 0-14.628571 0-21.942858-7.314285V950.857143c-7.314286-14.628571-14.628571-14.628571-29.257142-14.628572s-21.942857 7.314286-29.257143 14.628572v7.314286c0 7.314286-14.628571 14.628571-21.942857 7.314285-7.314286 0-14.628571-7.314286-21.942858-7.314285-7.314286-7.314286-7.314286-14.628571-7.314285-21.942858v-7.314285c0-14.628571 0-21.942857-7.314286-36.571429-7.314286-7.314286-21.942857-14.628571-36.571429-7.314286H621.714286c-7.314286 0-14.628571 0-21.942857-7.314285-7.314286-7.314286-7.314286-14.628571-7.314286-21.942857 0-7.314286 0-14.628571 7.314286-21.942858h7.314285c14.628571-7.314286 14.628571-14.628571 14.628572-29.257142s-7.314286-21.942857-14.628572-29.257143h-7.314285c-7.314286-7.314286-7.314286-14.628571-7.314286-21.942857 0-7.314286 7.314286-14.628571 7.314286-21.942858 14.628571-14.628571 21.942857-21.942857 29.257142-14.628571h7.314286c14.628571 0 21.942857 0 36.571429-7.314286 7.314286-7.314286 14.628571-21.942857 7.314285-36.571428v-7.314286c0-7.314286 0-14.628571 7.314286-21.942857 7.314286 0 14.628571-7.314286 21.942857-7.314286 7.314286 0 14.628571 0 21.942857 7.314286v7.314286c7.314286 14.628571 14.628571 14.628571 29.257143 14.628571s21.942857-7.314286 29.257143-14.628571v-7.314286c7.314286-7.314286 14.628571-14.628571 21.942857-7.314286 7.314286 0 14.628571 7.314286 21.942857 7.314286 7.314286 7.314286 7.314286 14.628571 7.314286 21.942857v7.314286c0 14.628571 0 21.942857 7.314286 36.571428 7.314286 7.314286 21.942857 14.628571 36.571428 7.314286h7.314286c7.314286 0 14.628571 0 21.942857 7.314286 0 7.314286 7.314286 14.628571 7.314286 21.942857 0 7.314286 0 14.628571-7.314286 21.942857h-7.314285c-7.314286 7.314286-14.628571 14.628571-14.628572 29.257143-7.314286 14.628571 0 29.257143 7.314286 36.571428zM760.685714 731.428571c-36.571429 0-65.828571 29.257143-65.828571 65.828572s29.257143 65.828571 65.828571 65.828571 65.828571-29.257143 65.828572-65.828571-29.257143-65.828571-65.828572-65.828572z" p-id="3669"></path></svg>
