<?xml version="1.0" standalone="no"?><!DOCTYPE svg PUBLIC "-//W3C//DTD SVG 1.1//EN" "http://www.w3.org/Graphics/SVG/1.1/DTD/svg11.dtd"><svg t="1567656237998" class="icon" viewBox="0 0 1024 1024" version="1.1" xmlns="http://www.w3.org/2000/svg" p-id="2340" width="200" height="200" xmlns:xlink="http://www.w3.org/1999/xlink"><defs><style type="text/css"></style></defs><path d="M553.86203003 156.61769104a59.43740844 59.43740844 0 0 0-79.86785888 0L151.037323 463.27838135a29.79286193 29.79286193 0 0 0 39.89685059 44.25361632l5.13542175-4.87586974V822.72082519a59.58572388 59.58572388 0 0 0 59.58572388 59.6598816h173.39927672v-179.3875122a41.95472718 41.95472718 0 0 1 41.97326661-42.01034547h81.59202576a41.95472718 41.95472718 0 0 1 41.97326659 42.01034547v179.3875122h177.51502992a59.58572388 59.58572388 0 0 0 59.6042633-59.6598816V506.56794739c13.2371521 11.97647094 32.01759338 11.06803894 43.03001403-1.20506286a29.79286193 29.79286193 0 0 0-2.15057372-42.08450318L553.86203003 156.63623047z" p-id="2341"></path></svg>
