<?xml version="1.0" standalone="no"?><!DOCTYPE svg PUBLIC "-//W3C//DTD SVG 1.1//EN" "http://www.w3.org/Graphics/SVG/1.1/DTD/svg11.dtd"><svg t="1567660177321" class="icon" viewBox="0 0 1024 1024" version="1.1" xmlns="http://www.w3.org/2000/svg" p-id="5041" xmlns:xlink="http://www.w3.org/1999/xlink" width="200" height="200"><defs><style type="text/css"></style></defs><path d="M337.405 339.715h265.938c17.963 0 35.21-7.549 46.74-21.327 27.45-32.657 53.477-72.661 59.291-108.478 11.734-71.844-18.98-108.279-108.274-108.279s-59.087 58.58-93.783 63.373c-25.821 3.573-24.9-30.511-65.516-63.269-29.189-23.474-61.842 42.759-100.42 43.167-45.002 0.614-108.17-11.839-108.17 65.007 0 31.025 27.142 72.965 56.84 107.766 11.94 13.878 29.085 22.04 47.354 22.04z m249.614 429.019c0-100.929 81.844-182.773 182.77-182.773 4.489 0 8.88 0.204 13.269 0.513-27.147-63.068-67.967-126.337-113.889-178.383-14.186-16.125-34.802-25.104-56.227-25.104H329.137c-20.515 0-40.311 8.266-54.499 23.061-89.189 93.375-171.442 226.758-171.442 324.01 0 85.721 86.131 194 192.466 194h329.521c13.878 0 27.352-1.838 40.412-5.207-47.452-32.963-78.576-87.865-78.576-150.117z m-4.489-242.673l-57.05 103.475c-4.998 9.084 1.634 20.311 11.939 20.311h16.23c7.549 0 13.673 6.124 13.673 13.673 0 7.554-6.124 13.679-13.673 13.679h-40.721c-7.957 0-14.286 6.323-14.385 14.286v6.732c0 7.554 6.119 13.679 13.673 13.679h41.328c7.554 0 13.679 6.124 13.679 13.672 0 3.673-1.43 7.146-3.981 9.697-2.551 2.551-6.02 3.976-9.697 3.976h-41.328c-7.554 0-13.673 6.124-13.673 13.679v34.795c0 7.554-6.124 13.679-13.679 13.679h-24.794c-7.554 0-13.679-6.124-13.679-13.679v-34.696c0-7.549-6.124-13.674-13.673-13.674h-40.925c-7.549 0-13.672-6.124-13.672-13.672 0-3.678 1.43-7.146 3.981-9.697 2.551-2.551 6.018-3.981 9.691-3.981h40.925c7.549 0 13.673-6.124 13.778-13.673l0.099-6.632c0.105-7.962-6.328-14.39-14.385-14.39h-40.417c-7.549 0-13.672-6.124-13.672-13.673 0-7.554 6.123-13.679 13.672-13.679h15.717c10.409 0 16.942-11.222 11.944-20.305l-57.05-103.48c-4.998-9.084 1.634-20.305 11.94-20.305h27.147c5.207 0 9.901 2.961 12.143 7.549l46.437 92.663c4.998 10.001 19.388 10.001 24.491 0l46.43-92.663c2.347-4.588 7.041-7.549 12.144-7.549h27.147c10.61 0.097 17.244 11.119 12.246 20.203z m0 0" p-id="5042"></path><path d="M763.256 924.058c86.438 0 156.443-70.11 156.443-156.443 0-86.434-70.11-156.445-156.443-156.445-86.434 0-156.439 70.11-156.439 156.445-0.001 86.437 70.104 156.443 156.439 156.443zM651.307 735.902h115.457a8.384 8.384 0 0 0 8.384-8.384V693.56c0-7.048 8.169-10.951 13.652-6.522l91.676 74.054c4.154 3.356 4.154 9.688 0 13.044l-91.678 74.053c-5.483 4.429-13.652 0.526-13.652-6.522v-33.958a8.384 8.384 0 0 0-8.384-8.384H651.306a8.384 8.384 0 0 1-8.384-8.384v-46.656a8.386 8.386 0 0 1 8.385-8.383z" p-id="5043"></path></svg>