<?xml version="1.0" standalone="no"?><!DOCTYPE svg PUBLIC "-//W3C//DTD SVG 1.1//EN" "http://www.w3.org/Graphics/SVG/1.1/DTD/svg11.dtd"><svg t="1567658817533" class="icon" viewBox="0 0 1024 1024" version="1.1" xmlns="http://www.w3.org/2000/svg" p-id="3083" xmlns:xlink="http://www.w3.org/1999/xlink" width="200" height="200"><defs><style type="text/css"></style></defs><path d="M741.376 354.304H292.864c-16.384 0-30.72-12.288-30.72-30.72 0-16.384 12.288-30.72 30.72-30.72h448.512c16.384 0 30.72 12.288 30.72 30.72-2.048 18.432-14.336 30.72-30.72 30.72zM696.32 256H335.872c-16.384 0-30.72-12.288-30.72-30.72 0-16.384 12.288-30.72 30.72-30.72h364.544c16.384 0 30.72 12.288 30.72 30.72-2.048 16.384-14.336 30.72-34.816 30.72z m141.312 229.376c0-47.104-36.864-83.968-83.968-83.968H278.528c-47.104 0-83.968 36.864-83.968 83.968v270.336c0 47.104 36.864 83.968 83.968 83.968h477.184c47.104 0 83.968-36.864 83.968-83.968l-2.048-270.336z m-294.912 106.496h57.344c14.336 0 26.624 12.288 26.624 26.624 0 14.336-12.288 26.624-26.624 26.624h-59.392V675.84h57.344c14.336 0 26.624 12.288 26.624 26.624 0 14.336-12.288 26.624-26.624 26.624h-57.344V757.76c0 14.336-10.24 28.672-26.624 28.672-14.336 0-26.624-12.288-26.624-28.672v-30.72H430.08c-14.336 0-26.624-12.288-26.624-26.624 0-14.336 12.288-26.624 26.624-26.624h57.344v-30.72H430.08c-14.336 0-26.624-12.288-26.624-26.624 0-14.336 12.288-26.624 26.624-26.624h57.344v-12.288L409.6 501.76c-10.24-10.24-10.24-28.672 0-36.864 10.24-10.24 26.624-10.24 38.912 0l65.536 65.536 65.536-65.536c10.24-10.24 26.624-10.24 38.912 0 10.24 10.24 10.24 28.672 0 36.864l-77.824 77.824 2.048 12.288z m0 0" p-id="3084"></path></svg>