<?xml version="1.0" standalone="no"?><!DOCTYPE svg PUBLIC "-//W3C//DTD SVG 1.1//EN" "http://www.w3.org/Graphics/SVG/1.1/DTD/svg11.dtd"><svg t="1567658739369" class="icon" viewBox="0 0 1024 1024" version="1.1" xmlns="http://www.w3.org/2000/svg" p-id="2854" xmlns:xlink="http://www.w3.org/1999/xlink" width="200" height="200"><defs><style type="text/css"></style></defs><path d="M878.933333 189.866667C861.866667 117.333333 823.466667 64 755.2 64H260.266667C192 66.133333 151.466667 125.866667 136.533333 189.866667L10.666667 817.066667c0 68.266667 55.466667 125.866667 123.733333 125.866666h746.666667c68.266667 0 123.733333-55.466667 123.733333-125.866666L878.933333 189.866667zM646.4 642.133333l-55.466667 53.333334c-2.133333 2.133333-4.266667 6.4-4.266666 10.666666l12.8 74.666667c2.133333 10.666667-8.533333 19.2-19.2 12.8L512 757.333333c-4.266667-2.133333-8.533333-2.133333-12.8 0l-68.266667 36.266667c-8.533333 4.266667-21.333333-2.133333-19.2-12.8l12.8-74.666667c0-4.266667 0-8.533333-4.266666-10.666666l-55.466667-53.333334c-8.533333-8.533333-4.266667-21.333333 6.4-21.333333l76.8-10.666667c4.266667 0 8.533333-4.266667 10.666667-6.4l34.133333-68.266666c4.266667-10.666667 19.2-10.666667 23.466667 0l34.133333 68.266666c2.133333 4.266667 6.4 6.4 10.666667 6.4l76.8 10.666667c12.8 0 17.066667 12.8 8.533333 21.333333z m-138.666667-245.333333c-123.733333 0-224-100.266667-224-224h64c0 87.466667 72.533333 160 160 160s160-72.533333 160-160h64c0 123.733333-100.266667 224-224 224z" p-id="2855"></path></svg>