<?xml version="1.0" standalone="no"?><!DOCTYPE svg PUBLIC "-//W3C//DTD SVG 1.1//EN" "http://www.w3.org/Graphics/SVG/1.1/DTD/svg11.dtd"><svg t="1567659937606" class="icon" viewBox="0 0 1024 1024" version="1.1" xmlns="http://www.w3.org/2000/svg" p-id="4126" xmlns:xlink="http://www.w3.org/1999/xlink" width="200" height="200"><defs><style type="text/css"></style></defs><path d="M784.996 470.729a124.686 124.686 0 0 0 60.788 28.728v373c0 16.847-13.549 30.429-30.36 30.429H207.743c-16.811 0-30.466-13.582-30.466-30.429V499.599c23.019-3.582 43.907-13.264 60.896-27.522v198.506h546.821V470.729z m48.34-286.709c4.362 0 8.513 0.923 12.449 2.377v-34.225c0-16.811-13.549-30.395-30.36-30.395H207.744c-16.811 0-30.466 13.583-30.466 30.395v34.616c4.364-1.667 9.116-2.766 13.938-2.766h642.119z m0 36.53H191.217L69.249 351.527c0 48.907 39.686 88.595 88.56 88.595 10.179 0 19.861-1.773 29.011-4.895 0.283-0.176 0.711-0.319 0.994-0.461 2.871-0.994 5.604-2.093 8.192-3.369 0.319-0.144 0.745-0.356 1.099-0.568 2.767-1.384 5.498-2.838 8.088-4.469 0.105-0.071 0.283-0.178 0.353-0.249 11.28-7.237 20.784-16.954 27.878-28.302 0-0.071 0.07-0.178 0.07-0.283 1.702-2.768 3.263-5.747 4.681-8.76v-0.037c5.32-11.28 8.299-23.905 8.299-37.203 0 48.907 39.722 88.595 88.595 88.595 48.908 0 88.596-39.688 88.596-88.595 0 48.907 39.686 88.595 88.665 88.595 48.908 0 88.596-39.688 88.596-88.595 0 48.907 39.615 88.595 88.665 88.595 48.803 0 88.524-39.688 88.524-88.595 0 15.64 4.113 30.324 11.172 43.126 0.391 0.568 0.711 1.135 1.099 1.703 1.348 2.198 2.697 4.398 4.222 6.524 0.391 0.568 0.957 1.313 1.525 2.058 1.491 1.879 3.051 3.902 4.752 5.712 0.497 0.604 0.957 1.099 1.418 1.666 2.058 2.235 4.289 4.257 6.597 6.207 0.07 0.105 0.144 0.248 0.282 0.283 7.803 6.667 16.706 11.916 26.459 15.604 0.071 0 0.249 0.037 0.319 0.142 3.263 1.171 6.419 2.2 9.825 2.98 6.772 1.667 13.76 2.591 20.889 2.591 48.98 0 88.701-39.688 88.701-88.595L833.336 220.549z" p-id="4127"></path></svg>
