<?xml version="1.0" standalone="no"?><!DOCTYPE svg PUBLIC "-//W3C//DTD SVG 1.1//EN" "http://www.w3.org/Graphics/SVG/1.1/DTD/svg11.dtd"><svg t="1567658778266" class="icon" viewBox="0 0 1024 1024" version="1.1" xmlns="http://www.w3.org/2000/svg" p-id="2968" xmlns:xlink="http://www.w3.org/1999/xlink" width="200" height="200"><defs><style type="text/css"></style></defs><path d="M581.12 430.08c-15.36 0-20.48-7.68-28.16-15.36s-15.36-15.36-15.36-28.16V153.6H220.16c-40.96 0-76.8 35.84-76.8 79.36v614.4c0 40.96 33.28 74.24 74.24 74.24h519.68c40.96 0 74.24-33.28 74.24-74.24V430.08h-230.4z m64 299.52c0 15.36-12.8 28.16-28.16 28.16H345.6c-15.36 0-28.16-12.8-28.16-28.16v-2.56c0-15.36 12.8-28.16 28.16-28.16h271.36c15.36 0 28.16 12.8 28.16 28.16v2.56z m0-110.08c0 15.36-12.8 28.16-28.16 28.16H345.6c-15.36 0-28.16-12.8-28.16-28.16v-5.12c0-15.36 12.8-28.16 28.16-28.16h271.36c15.36 0 28.16 12.8 28.16 28.16v5.12z m0-107.52c0 15.36-12.8 28.16-28.16 28.16H345.6c-15.36 0-28.16-12.8-28.16-28.16v-2.56c0-15.36 12.8-28.16 28.16-28.16h271.36c15.36 0 28.16 12.8 28.16 28.16V512z" p-id="2969"></path><path d="M593.92 168.96V371.2h202.24c2.56 0-194.56-194.56-202.24-202.24z" p-id="2970"></path></svg>