<?xml version="1.0" standalone="no"?><!DOCTYPE svg PUBLIC "-//W3C//DTD SVG 1.1//EN" "http://www.w3.org/Graphics/SVG/1.1/DTD/svg11.dtd"><svg t="1567659711306" class="icon" viewBox="0 0 1024 1024" version="1.1" xmlns="http://www.w3.org/2000/svg" p-id="3553" xmlns:xlink="http://www.w3.org/1999/xlink" width="200" height="200"><defs><style type="text/css"></style></defs><path d="M603.2 368c-12.8 0-27.2 4.8-36.8 16-9.6 9.6-16 22.4-16 36.8 0 14.4 4.8 27.2 16 36.8 19.2 19.2 54.4 19.2 73.6 0 20.8-20.8 20.8-52.8 0-73.6-9.6-9.6-24-16-36.8-16z" p-id="3554"></path><path d="M873.6 179.2c-1.6-14.4-12.8-27.2-28.8-28.8l-305.6-32c-9.6-1.6-19.2 1.6-25.6 9.6L137.6 505.6c-12.8 12.8-19.2 28.8-19.2 44.8 0 17.6 6.4 33.6 19.2 44.8l291.2 291.2c12.8 12.8 28.8 19.2 44.8 19.2 17.6 0 33.6-6.4 44.8-19.2L896 510.4c6.4-6.4 9.6-16 9.6-25.6l-32-305.6zM684.8 504c-22.4 22.4-51.2 33.6-81.6 33.6s-60.8-12.8-81.6-33.6c-22.4-22.4-33.6-51.2-33.6-81.6s12.8-60.8 33.6-81.6c44.8-44.8 118.4-44.8 164.8 0 44.8 43.2 44.8 116.8-1.6 163.2z" p-id="3555"></path></svg>