<?xml version="1.0" standalone="no"?><!DOCTYPE svg PUBLIC "-//W3C//DTD SVG 1.1//EN" "http://www.w3.org/Graphics/SVG/1.1/DTD/svg11.dtd"><svg t="1567660236369" class="icon" viewBox="0 0 1024 1024" version="1.1" xmlns="http://www.w3.org/2000/svg" p-id="5270" xmlns:xlink="http://www.w3.org/1999/xlink" width="200" height="200"><defs><style type="text/css"></style></defs><path d="M589.995 913.28l14.25-82.901-60.16-58.71c-20.906-20.224-28.416-47.573-20.096-72.96 8.278-25.344 30.336-42.965 59.008-47.104l72.832-10.624a91.008 91.008 0 0 1-8.661-6.613 72.533 72.533 0 0 1-26.325-51.243c-0.512-8.789 0-17.408 1.664-25.856a72.533 72.533 0 0 1 5.162-17.45 39.125 39.125 0 0 1 8.406-12.246c3.498-3.328 7.338-6.613 11.946-9.6 4.651-3.157 9.302-6.826 14.379-11.477 4.523-3.968 8.533-9.387 12.373-16.555a243.864 243.864 0 0 0 9.558-21.589 300.8 300.8 0 0 0 7.68-26.197c5.546-1.664 10.922-4.694 16.085-9.302 4.48-3.968 8.405-9.386 12.245-16.512 3.499-7.168 6.23-16.426 7.979-28.373a68.267 68.267 0 0 0-0.427-22.87 58.624 58.624 0 0 0-5.376-15.274 21.675 21.675 0 0 0-9.386-10.283 386.56 386.56 0 0 0-4.267-67.84 342.997 342.997 0 0 0-14.763-61.354 194.773 194.773 0 0 0-31.829-59.691 126.379 126.379 0 0 0-24.704-23.381 202.325 202.325 0 0 0-34.645-20.736 235.861 235.861 0 0 0-41.984-15.232 182.4 182.4 0 0 0-47.062-5.974c-13.098 0-26.538 1.323-40.277 3.499a194.901 194.901 0 0 0-41.13 11.947 185.685 185.685 0 0 0-40.32 23.338 166.784 166.784 0 0 0-35.969 37.803c-11.264 16.256-19.925 34.688-25.856 55.04-5.973 20.437-10.154 39.68-12.288 57.728a399.915 399.915 0 0 0-3.498 64.512c-4.608 5.803-8.107 11.605-10.24 17.92-2.347 5.632-3.84 12.288-4.694 19.925-0.981 7.638 0 16.384 2.859 25.856 2.987 9.643 6.272 16.896 10.24 22.059 4.01 5.12 7.68 9.088 11.093 11.947 4.011 2.986 7.979 4.778 11.947 5.93 2.859 8.96 5.675 17.75 8.49 26.198 2.817 7.296 5.803 14.421 9.302 21.589 3.456 7.083 7.253 12.587 11.947 16.597 9.77 7.894 18.218 15.531 25.856 22.87 7.68 7.253 11.946 17.749 13.098 31.317 0.47 8.619 0.854 16.597 0.854 23.893 0 7.467-1.366 14.422-3.84 21.206A60.587 60.587 0 0 1 387.84 626.9c-6.443 6.827-15.573 13.952-27.52 21.206a170.795 170.795 0 0 1-51.2 22.058c-19.627 5.163-104.832 34.518-123.221 40.832a156.715 156.715 0 0 0-47.958 25.344c-13.397 10.624-21.888 26.539-25.344 47.446-5.674 36.138-6.826 41.941-3.84 65.152 2.987 23.04 7.68 36.821 13.952 41.429 5.12 3.84 19.712 8.533 44.118 13.952 24.32 5.547 177.578 34.347 355.498 34.347 23.254 0 45.611-0.512 67.158-1.494a81.8 81.8 0 0 1 0.512-23.893z m351.829-204.288l-88.661-12.97c-13.654-1.92-29.654-13.569-35.84-25.985l-39.68-80.426c-2.902-6.144-7.04-9.302-11.094-9.302s-7.893 3.158-11.05 9.302l-39.68 80.426c-6.059 12.246-22.23 24.064-35.84 26.027l-88.662 12.928c-13.653 2.005-16.725 11.435-6.826 21.035l64.17 62.506c9.814 9.643 15.915 28.587 13.568 42.112l-15.061 88.448c-1.707 9.814 2.133 15.574 8.96 15.574a18.347 18.347 0 0 0 8.96-2.688l79.232-41.771c6.187-3.115 14.165-4.821 22.101-4.821 7.979 0 16.086 1.706 22.102 4.821l79.232 41.813a19.37 19.37 0 0 0 8.96 2.646c6.826 0 10.624-5.803 8.96-15.574l-15.104-88.448c-2.304-13.568 3.84-32.469 13.61-42.112l64.171-62.506c10.07-9.6 7.083-19.03-6.528-21.035z" p-id="5271"></path></svg>