<?xml version="1.0" standalone="no"?><!DOCTYPE svg PUBLIC "-//W3C//DTD SVG 1.1//EN" "http://www.w3.org/Graphics/SVG/1.1/DTD/svg11.dtd"><svg t="1567660035558" class="icon" viewBox="0 0 1024 1024" version="1.1" xmlns="http://www.w3.org/2000/svg" p-id="4584" xmlns:xlink="http://www.w3.org/1999/xlink" width="200" height="200"><defs><style type="text/css"></style></defs><path d="M742.4 701.6c-49.6 0-89.6 40-89.6 89.6s40 89.6 89.6 89.6 89.6-40 89.6-89.6c0.8-49.6-40-89.6-89.6-89.6z m-436 0.8c-49.6 0-89.6 40-89.6 89.6 0 49.6 40 89.6 89.6 89.6 49.6 0 89.6-40 89.6-89.6 0.8-49.6-40-89.6-89.6-89.6z m527.2-370.4c-16.8-20-28-36.8-54.4-36.8H652V185.6c0-20-16-36.8-36-36.8H107.2c-20 0-36 16.8-36 36.8v548.8c0 20 16 36.8 36 36.8h72.8c7.2-58.4 52.8-104 111.2-111.2 70.4-8.8 134.4 40.8 143.2 111.2h183.2c7.2-58.4 52.8-104 111.2-111.2 70.4-8.8 134.4 40.8 143.2 111.2h36c9.6 0 18.4-4 25.6-10.4 7.2-7.2 10.4-16 10.4-25.6V552c-3.2-26.4-12.8-52-28.8-73.6l-81.6-146.4zM679.2 550.4V370.4H768c5.6 0 14.4 8.8 14.4 8.8l76 140.8c7.2 8.8 12 19.2 14.4 30.4H679.2z" p-id="4585"></path></svg>