<?xml version="1.0" standalone="no"?><!DOCTYPE svg PUBLIC "-//W3C//DTD SVG 1.1//EN" "http://www.w3.org/Graphics/SVG/1.1/DTD/svg11.dtd"><svg t="1567658681736" class="icon" viewBox="0 0 1024 1024" version="1.1" xmlns="http://www.w3.org/2000/svg" p-id="2671" xmlns:xlink="http://www.w3.org/1999/xlink" width="200" height="200"><defs><style type="text/css"></style></defs><path d="M745.13408 564.56192c-88.88832-75.136-109.52704-62.43328-109.52704-62.43328-37.03808 20.6336-78.83776 33.33632-124.3392 33.33632-49.2032 0-94.70976-14.2848-133.8624-38.0928-158.74048 74.07104-306.88256 282.0096-294.18496 522.22464l856.08448 3.1744c15.88224-194.71872-105.80992-382.54592-194.17088-458.20928z m-233.86624 399.47264l-63.488-65.60768 57.67168-300.53376-32.27648-44.96896c8.46336-11.1104 67.19488-12.17536 76.1856 0l-32.27136 44.96896 57.67168 300.53376-63.49312 65.60768z m0 0" p-id="2672"></path><path d="M377.9328 480.4352c39.15264 23.80288 84.65408 38.08768 133.86752 38.08768 45.50144 0 87.30112-12.69248 124.33408-32.80384 79.8976-43.91424 134.92736-128.04096 134.92736-226.45248 0-143.3856-115.87584-259.26144-259.26144-259.26144-143.39072 0-259.26656 115.87584-259.26656 259.26144-0.52736 94.1824 50.27328 175.66208 125.39904 221.16864z m0 0" p-id="2673"></path></svg>
