<?xml version="1.0" standalone="no"?><!DOCTYPE svg PUBLIC "-//W3C//DTD SVG 1.1//EN" "http://www.w3.org/Graphics/SVG/1.1/DTD/svg11.dtd"><svg t="1567659862945" class="icon" viewBox="0 0 1024 1024" version="1.1" xmlns="http://www.w3.org/2000/svg" p-id="4012" xmlns:xlink="http://www.w3.org/1999/xlink" width="200" height="200"><defs><style type="text/css"></style></defs><path d="M961.28 414.464 961.28 923.392C961.28 978.496 918.528 1022.912 865.408 1022.912L158.016 1022.912C105.088 1022.912 62.144 978.432 62.144 923.52L62.144 100.224C62.144 45.44 105.216 0.832 157.696 0.832L563.712 0.832 563.712 349.376C563.712 385.28 591.872 414.464 626.24 414.464L961.28 414.464 961.28 414.464ZM943.808 349.504 626.176 19.008 626.176 349.376C626.176 349.312 626.304 349.504 626.24 349.504L943.808 349.504 943.808 349.504ZM220.288 414.464 428.416 414.464C445.696 414.464 459.648 399.872 459.648 381.952 459.648 364.032 445.696 349.504 428.416 349.504L220.288 349.504C203.072 349.504 189.12 364.032 189.12 381.952 189.12 399.872 203.072 414.464 220.288 414.464L220.288 414.464ZM220.288 630.976 803.072 630.976C820.288 630.976 834.304 616.448 834.304 598.528 834.304 580.544 820.288 566.016 803.072 566.016L220.288 566.016C203.072 566.016 189.12 580.544 189.12 598.528 189.12 616.448 203.072 630.976 220.288 630.976L220.288 630.976Z" p-id="4013"></path></svg>