<?xml version="1.0" standalone="no"?><!DOCTYPE svg PUBLIC "-//W3C//DTD SVG 1.1//EN" "http://www.w3.org/Graphics/SVG/1.1/DTD/svg11.dtd"><svg t="1567659962436" class="icon" viewBox="0 0 1000 1000" version="1.1" xmlns="http://www.w3.org/2000/svg" p-id="4240" xmlns:xlink="http://www.w3.org/1999/xlink" width="200" height="200"><defs><style type="text/css"></style></defs><path d="M825.3103 690.8006c2.6663 7.9946 4.665 18.2536 5.9962 30.7741 1.3351 12.5285 1.9987 25.1879 1.9987 37.9743 0 12.7943-0.9334 24.7862-2.7992 35.9756-1.8618 11.1974-4.661 19.7226-8.3927 25.5867-2.6663 3.7295-9.9936 7.4599-21.986 11.1914s-26.7839 7.331-44.3697 10.7937c-17.5908 3.4627-37.3122 6.5266-59.1653 9.1928s-43.7062 5.0626-65.5562 7.1921c-21.8531 2.1376-43.0386 3.7335-63.5615 4.7997-20.5179 1.0653-38.5065 1.6009-53.9656 1.6009-15.4552 0-33.3108-0.6675-53.5639-1.9986-20.2561-1.3351-41.1768-2.932-62.76-4.7977-21.5882-1.8657-42.9067-3.9973-63.9593-6.3937-21.0536-2.4004-40.3773-4.9307-57.9631-7.5968-17.5908-2.6662-32.3824-5.3284-44.3747-7.9946s-19.5845-5.3284-22.7825-7.9946c-5.3326-4.2651-9.462-17.3203-12.3941-39.1724s-1.9987-50.099 2.7992-84.7435c3.197-19.7206 11.1919-34.6445 23.9847-44.7706 12.7929-10.1281 27.7163-18.2536 44.7725-24.3815 17.0551-6.1288 34.7778-11.5941 53.1651-16.3929 18.3863-4.7918 34.7788-11.7211 49.1677-20.7809 11.1919-6.9293 19.7214-13.5928 25.5857-19.9864 5.8633-6.3977 10.1256-12.7923 12.7919-19.192 2.6623-6.3917 3.9975-13.0551 3.9975-19.9864 0-6.9273-0.2688-14.6541-0.7995-23.1823-1.0663-12.2577-5.3286-21.9851-12.7929-29.1792-7.4602-7.1941-15.4552-14.5252-23.9847-21.9851-4.2633-3.7315-8.1278-8.9279-11.5946-15.5914-3.4628-6.6595-6.5268-13.4549-9.1931-20.3842-2.6623-7.9946-5.3286-16.5238-7.9949-25.5847-4.7979-0.5306-9.5919-2.1306-14.3888-4.7928-4.2633-2.6702-8.5306-6.5346-12.7929-11.5941-4.2633-5.0626-7.7301-12.1248-10.3924-21.1846-2.6663-9.0649-3.3339-17.3243-1.9987-24.7842 1.3312-7.4599 3.5957-13.8576 6.7927-19.186 3.201-5.863 7.7301-11.4612 13.5933-16.7896 0-20.2523 1.0653-40.5075 3.197-60.7598 2.1316-17.0544 5.8633-35.3081 11.1919-54.7639 5.3326-19.4508 13.5933-36.908 24.7852-52.3625 10.1265-14.9239 21.3224-27.0517 33.5806-36.3733 12.2572-9.3337 24.9171-16.6607 37.9758-21.9851 13.0577-5.3324 25.9834-8.9279 38.7753-10.7937 12.7889-1.8657 25.3159-2.7991 37.5741-2.7991 15.4592 0 30.2507 1.7328 44.3737 5.1955 14.124 3.4666 27.1817 8.1315 39.174 13.9905 11.9924 5.867 22.7865 12.5305 32.3774 19.9864 9.5959 7.4679 17.5908 14.9279 23.9847 22.3878 13.3275 17.0544 23.3211 35.9756 29.9809 56.7575 6.6638 20.7869 11.3288 40.2427 13.9911 58.3634 2.6663 21.3175 3.7316 42.6351 3.197 63.9566 4.7979 2.6622 8.7954 6.1288 11.9924 10.391 2.6663 3.7325 5.0668 8.5292 7.1984 14.3932 2.1506 5.859 2.6823 13.0571 1.597 21.5824-1.0853 11.727-3.7476 20.7869-7.9949 27.1806-4.2633 6.3987-8.7954 11.4612-13.5893 15.1937-5.8633 4.2621-11.9924 7.1941-18.3903 8.79-2.6823 9.0609-5.3486 17.5901-7.9949 25.5847-2.6743 6.9293-5.7383 13.7247-9.1931 20.3842-3.4708 6.6635-7.3313 11.86-11.5946 15.5914-9.5919 7.9946-17.5868 14.791-23.9847 20.3832-6.3939 5.5992-10.6572 15.0568-12.7889 28.3838-1.601 7.9956-2.2686 16.1231-1.9987 24.3825 0.2658 8.2604 2.3965 16.5218 6.3939 24.7842 3.9975 8.2604 10.1265 16.1221 18.3863 23.586 8.2647 7.4579 19.8544 14.1214 34.7788 19.9864 12.7929 5.3284 27.0488 10.1241 42.7738 14.3882 15.724 4.2631 30.9143 9.1928 45.573 14.791 14.6547 5.5922 27.7123 12.5225 39.174 20.7869C812.3855 665.0831 820.5133 676.4074 825.3103 690.8006L825.3103 690.8006zM515.9104 516.5148c9.5919 0 17.8556-3.4637 24.7812-10.391 6.9296-6.9293 10.3954-15.4585 10.3954-25.5847 0-10.1271-3.4668-18.6524-10.3954-25.5807-6.9256-6.9293-15.1893-10.396-24.7812-10.396-10.1256 0-18.6561 3.4666-25.5857 10.396-6.9296 6.9283-10.3914 15.4535-10.3914 25.5807 0 10.1261 3.4628 18.6554 10.3914 25.5847C497.2542 513.0522 505.7848 516.5148 515.9104 516.5148L515.9104 516.5148zM545.4885 371.8119c-0.5307-6.3937 3.197-13.1901 11.1919-20.3842 7.9949-7.1941 17.0591-15.0558 27.1857-23.586 10.1265-8.5252 19.4566-18.2526 27.9822-29.1792 8.5256-10.9256 13.3235-23.3162 14.3888-37.1738 0.5347-14.9239-1.0653-29.0503-4.7979-42.3693-3.7276-13.327-10.1265-24.9171-19.1868-34.7774s-20.6548-17.5901-34.7788-23.1833c-14.124-5.5982-30.7814-8.3973-49.9682-8.3973-23.4501 0-43.1715 4.2631-59.1613 12.7923-15.9898 8.5292-28.7817 18.6554-38.3736 30.3774-9.5949 11.727-16.2586 24.1206-19.9873 37.1788-3.7316 13.0571-5.5974 23.8468-5.5974 32.376 0.5347 10.1261 3.7316 17.4532 9.5949 21.9851 5.8643 4.5319 12.3911 6.9293 19.5855 7.1941 7.1944 0.2658 13.7253-1.7328 19.5895-5.9959 5.8633-4.2621 8.7944-10.1261 8.7944-17.5851 0-4.7977 1.4641-10.5289 4.3952-17.1923 2.9321-6.6595 6.9296-13.1901 11.9924-19.5837 5.0628-6.3987 11.1919-11.727 18.3863-15.9892 7.1984-4.2631 15.0614-6.3987 23.587-6.3987 17.5908 0 31.5819 4.4 41.9733 13.1951 10.3914 8.79 15.3222 19.8495 14.7916 33.1765 0 10.1261-4.1304 19.0531-12.3941 26.7828-8.2607 7.7248-17.321 15.5864-27.1817 23.581s-19.0529 16.5238-27.5804 25.5847c-8.5296 9.0599-13.0617 19.7206-13.5933 31.9783v21.582367155068862c0.5347 5.864 3.4678 11.4612 8.7964 16.7896 5.3286 5.3324 12.522 8.2644 21.5833 8.795 9.0642-0.5346 16.1267-3.4627 21.1895-8.795 5.0628-5.3284 7.5932-11.726 7.5932-19.186V371.81191152398674L545.4885 371.8119zM545.4885 371.8119" p-id="4241"></path></svg>